<?xml version="1.0" encoding="UTF-8" standalone="no"?>
<svg
        xmlns:dc="http://purl.org/dc/elements/1.1/"
        xmlns:cc="http://creativecommons.org/ns#"
        xmlns:rdf="http://www.w3.org/1999/02/22-rdf-syntax-ns#"
        xmlns:svg="http://www.w3.org/2000/svg"
        xmlns="http://www.w3.org/2000/svg"
        xmlns:sodipodi="http://sodipodi.sourceforge.net/DTD/sodipodi-0.dtd"
        xmlns:inkscape="http://www.inkscape.org/namespaces/inkscape"
        version="1.1"
        id="svg2"
        xml:space="preserve"
        width="485.66666"
        height="247.57333"
        viewBox="0 0 485.66666 247.57333"
        sodipodi:docname="logo Centrale Marseille_logo.eps">
    <metadata id="metadata8">
        <rdf:RDF>
            <cc:Work rdf:about="">
                <dc:format>image/svg+xml</dc:format>
                <dc:type rdf:resource="http://purl.org/dc/dcmitype/StillImage" />
            </cc:Work>
        </rdf:RDF>
    </metadata>
    <defs id="defs6" />
    <sodipodi:namedview pagecolor="#ffffff" bordercolor="#666666" borderopacity="1" objecttolerance="10"
                        gridtolerance="10" guidetolerance="10" inkscape:pageopacity="0" inkscape:pageshadow="2"
                        inkscape:window-width="640" inkscape:window-height="480" id="namedview4" />
    <g id="g10" inkscape:groupmode="layer" inkscape:label="ink_ext_XXXXXX"
       transform="matrix(1.3333333,0,0,-1.3333333,0,247.57333)">
        <g id="g12" transform="scale(0.1)">
            <path
                    d="m 1323.96,209.25 h -58.31 c -3.18,0 -4.45,1.27 -4.45,5.078 v 79.231 c 0,45.011 3.81,95.711 3.81,98.882 h -1.9 c 0,-1.261 -4.44,-25.351 -12.05,-43.101 l -39.3,-95.078 c -0.63,-3.801 -4.44,-5.071 -6.96,-5.071 h -38.68 c -3.17,0 -6.33,1.27 -8.24,5.071 l -38.03,96.347 c -6.98,17.75 -12.69,40.571 -13.31,41.832 h -1.27 c 0,-3.171 4.43,-51.972 4.43,-98.242 v -79.871 c 0,-3.808 -1.27,-5.078 -5.07,-5.078 h -58.95 c -3.16,0 -4.43,1.27 -4.43,5.078 v 307.434 c 0,3.789 1.27,5.058 4.43,5.058 h 61.48 c 2.54,0 3.81,-0.629 5.08,-3.172 l 66.56,-164.16 c 3.81,-9.519 5.7,-19.019 6.34,-19.648 h 1.89 c 0,0.629 3.18,10.769 6.35,19.648 l 64.66,164.16 c 1.26,2.543 3.16,3.172 5.7,3.172 h 60.22 c 3.17,0 5.07,-1.269 5.07,-5.058 V 214.328 c 0,-3.808 -1.9,-5.078 -5.07,-5.078"
                    style="fill:#2a3d8d;fill-opacity:1;fill-rule:nonzero;stroke:none" id="path14" class="centraleMarseille" />
            <path
                    d="m 1559.09,321.441 h -67.19 c -9.5,0 -17.11,-8.23 -17.11,-17.742 v -9.5 c 0,-10.16 6.97,-18.39 17.11,-18.39 h 24.09 c 20.28,0 39.93,17.121 43.1,35.492 z m 65.93,-112.191 h -53.88 c -4.45,0 -6.34,1.27 -6.34,5.078 0,5.07 -1.26,8.231 -4.44,8.231 -1.9,0 -3.8,-0.637 -5.71,-1.899 -13.93,-7.601 -26.62,-11.41 -38.66,-11.41 h -24.09 c -50.07,0 -89.37,34.23 -89.37,84.949 v 3.16 c 0,51.981 39.3,84.942 89.37,84.942 h 60.85 c 4.44,0 6.34,2.539 6.34,6.34 v 7.609 c 0,24.719 -20.28,43.109 -46.28,43.109 -15.2,0 -31.05,-9.519 -46.27,-36.148 -1.26,-2.52 -3.16,-3.789 -5.06,-3.789 -2.54,0 -5.08,1.898 -7.61,3.156 l -48.18,25.363 c -2.54,1.27 -3.79,2.528 -3.79,4.438 0,3.172 6.96,15.84 13.3,25.359 20.28,30.422 48.82,48.16 97.61,48.16 72.28,0 118.54,-45.628 118.54,-111.546 V 215.59 c 0,-4.442 -1.9,-6.34 -6.33,-6.34"
                    style="fill:#2a3d8d;fill-opacity:1;fill-rule:nonzero;stroke:none" id="path16" class="centralemArseille"/>
            <path
                    d="m 1844.95,420.34 c -3.8,0 -9.5,5.699 -22.82,5.699 -25.98,0 -45.62,-19.019 -45.62,-44.359 V 215.59 c 0,-4.442 -1.91,-6.34 -6.35,-6.34 h -59.58 c -4.44,0 -6.35,1.898 -6.35,6.34 v 277.64 c 0,4.442 1.91,6.348 6.35,6.348 h 53.88 c 4.43,0 6.33,-0.637 6.33,-5.707 v -8.883 c 0,-3.797 2.54,-6.34 5.08,-6.34 2.53,0 3.16,0.641 4.43,1.911 6.33,6.972 27.89,19.019 48.18,19.019 6.34,0 12.67,-0.637 17.74,-1.906 3.18,-0.633 5.08,-3.172 5.08,-6.344 v -64.019 c 0,-4.438 -3.17,-6.969 -6.35,-6.969"
                    style="fill:#2a3d8d;fill-opacity:1;fill-rule:nonzero;stroke:none" id="path18" class="centralemaRseille"/>
            <path
                    d="m 2114.95,427.309 -48.16,-23.457 c -2.54,-1.274 -4.44,-2.532 -6.97,-2.532 -1.91,0 -3.81,1.258 -5.08,3.801 -9.5,24.09 -27.88,36.141 -46.27,36.141 h -18.38 c -24.09,0 -34.87,-8.883 -34.87,-24.09 0,-24.094 34.87,-22.82 69.1,-30.442 45.64,-9.5 93.17,-25.351 93.17,-83.031 0,-53.879 -37.39,-100.789 -109.02,-100.789 h -18.38 c -51.98,0 -80.5,22.18 -98.26,50.078 -6.33,10.141 -11.41,20.922 -11.41,24.09 0,1.91 1.27,3.801 3.81,5.063 l 45.65,22.187 c 3.78,1.902 7.59,3.813 9.5,3.813 1.9,0 3.8,-1.27 5.07,-4.442 9.5,-24.078 27.25,-36.14 45.64,-36.14 h 18.38 c 24.09,0 36.77,13.32 36.77,27.269 0,24.094 -34.87,22.184 -69.74,29.152 -45.62,8.879 -91.9,24.719 -91.9,83.668 0,62.133 49.43,98.25 106.49,98.25 h 18.38 c 50.71,0 79.24,-20.277 96.98,-46.898 6.35,-9.512 13.31,-23.449 13.31,-26.621 0,-1.91 -1.27,-3.801 -3.81,-5.07"
                    style="fill:#2a3d8d;fill-opacity:1;fill-rule:nonzero;stroke:none" id="path20" class="centralemarSeille" />
            <path
                    d="m 2285.45,439.359 c -31.06,0 -45.01,-28.531 -45.01,-36.781 0,-3.156 2.54,-5.687 6.98,-5.687 h 75.43 c 4.44,0 6.98,2.531 6.98,5.687 0,7.613 -12.69,36.781 -44.38,36.781 z m 111.56,-103.328 h -150.86 c -4.44,0 -6.34,-1.902 -6.34,-6.34 v -14.582 c 0,-24.718 19.66,-45.64 45.64,-45.64 16.49,0 33.6,10.152 45.01,37.402 1.27,2.539 3.17,3.801 5.07,3.801 1.89,0 5.7,-1.902 10.78,-4.442 l 47.53,-23.449 c 2.54,-1.269 3.81,-3.16 3.81,-5.062 0,-2.539 -4.43,-10.789 -9.5,-19.02 -19.65,-32.34 -47.55,-55.789 -102.7,-55.789 -72.26,0 -118.53,46.281 -118.53,112.199 v 78.602 c 0,52.609 46.27,112.187 118.53,112.187 71.63,0 117.9,-59.578 117.9,-112.187 v -51.352 c 0,-4.418 -1.9,-6.328 -6.34,-6.328"
                    style="fill:#2a3d8d;fill-opacity:1;fill-rule:nonzero;stroke:none" id="path22" class="centralemarsEille" />
            <path
                    d="m 2526.94,209.25 h -59.58 c -4.45,0 -6.35,1.898 -6.35,6.34 v 277.64 c 0,4.442 1.9,6.348 6.35,6.348 h 59.58 c 4.44,0 6.34,-1.906 6.34,-6.348 V 215.59 c 0,-4.442 -1.9,-6.34 -6.34,-6.34 z M 2497.14,530 c -22.81,0 -42.47,19.641 -42.47,42.469 0,22.82 19.66,42.472 42.47,42.472 22.82,0 42.47,-19.652 42.47,-42.472 0,-22.828 -19.65,-42.469 -42.47,-42.469"
                    style="fill:#2a3d8d;fill-opacity:1;fill-rule:nonzero;stroke:none" id="path24" class="centralemarseIlle"/>
            <path
                    d="m 2666.38,209.25 h -59.58 c -4.44,0 -6.35,1.898 -6.35,6.34 v 386.68 c 0,4.421 1.91,6.32 6.35,6.32 h 59.58 c 4.44,0 6.35,-1.899 6.35,-6.32 V 215.59 c 0,-4.442 -1.91,-6.34 -6.35,-6.34"
                    style="fill:#2a3d8d;fill-opacity:1;fill-rule:nonzero;stroke:none" id="path26" class="centraleMarseiLle"/>
            <path
                    d="m 2805.82,209.25 h -59.58 c -4.44,0 -6.34,1.898 -6.34,6.34 v 386.68 c 0,4.421 1.9,6.32 6.34,6.32 h 59.58 c 4.45,0 6.35,-1.899 6.35,-6.32 V 215.59 c 0,-4.442 -1.9,-6.34 -6.35,-6.34"
                    style="fill:#2a3d8d;fill-opacity:1;fill-rule:nonzero;stroke:none" id="path28" class="centralemarseilLe"/>
            <path
                    d="m 2988.36,439.359 c -31.07,0 -45.01,-28.531 -45.01,-36.781 0,-3.156 2.54,-5.687 6.97,-5.687 h 75.43 c 4.45,0 6.99,2.531 6.99,5.687 0,7.613 -12.69,36.781 -44.38,36.781 z m 111.55,-103.328 h -150.85 c -4.44,0 -6.34,-1.902 -6.34,-6.34 v -14.582 c 0,-24.718 19.65,-45.64 45.64,-45.64 16.48,0 33.6,10.152 45.01,37.402 1.26,2.539 3.16,3.801 5.06,3.801 1.9,0 5.7,-1.902 10.78,-4.442 l 47.54,-23.449 c 2.53,-1.269 3.8,-3.16 3.8,-5.062 0,-2.539 -4.43,-10.789 -9.5,-19.02 -19.65,-32.34 -47.54,-55.789 -102.69,-55.789 -72.27,0 -118.53,46.281 -118.53,112.199 v 78.602 c 0,52.609 46.26,112.187 118.53,112.187 71.62,0 117.9,-59.578 117.9,-112.187 v -51.352 c 0,-4.418 -1.9,-6.328 -6.35,-6.328"
                    style="fill:#2a3d8d;fill-opacity:1;fill-rule:nonzero;stroke:none" id="path30" class="centralemarseillE" />
            <path
                    d="M 694.68,670.809 C 675.668,641.012 647.133,619.461 594.523,619.461 h -31.054 c -72.266,0 -117.91,46.277 -117.91,112.211 v 187.625 c 0,65.914 45.644,112.193 117.91,112.193 h 31.054 c 52.61,0 81.145,-21.55 100.157,-51.342 5.703,-9.511 12.043,-19.66 12.043,-23.453 0,-1.906 -1.262,-3.172 -3.801,-4.437 l -50.711,-25.996 c -2.539,-1.27 -5.078,-3.168 -7.598,-3.168 -1.906,0 -3.808,1.265 -5.078,4.437 -11.418,27.258 -27.902,37.399 -45.012,37.399 h -31.054 c -24.727,0 -45.645,-20.918 -45.645,-45.633 V 731.672 c 0,-24.731 20.918,-45.652 45.645,-45.652 h 31.054 c 17.11,0 33.594,10.152 45.012,37.402 1.27,3.168 3.172,4.437 5.078,4.437 2.52,0 5.059,-1.91 7.598,-3.168 l 50.711,-26 c 2.539,-1.261 3.801,-2.519 3.801,-4.421 0,-3.809 -6.34,-13.961 -12.043,-23.461"
                    style="fill:#465a80;fill-opacity:1;fill-rule:nonzero;stroke:none" id="path32" class="Centralemarseille"/>
            <path
                    d="m 864.523,855.91 c -31.062,0 -45,-28.531 -45,-36.781 0,-3.16 2.532,-5.699 6.973,-5.699 h 75.43 c 4.445,0 6.972,2.539 6.972,5.699 0,7.609 -12.683,36.781 -44.375,36.781 z M 976.086,752.578 H 825.227 c -4.442,0 -6.336,-1.898 -6.336,-6.34 v -14.566 c 0,-24.731 19.648,-45.652 45.632,-45.652 16.485,0 33.594,10.152 45.012,37.402 1.27,2.527 3.164,3.797 5.067,3.797 1.906,0 5.703,-1.899 10.781,-4.438 l 47.531,-23.453 c 2.539,-1.269 3.809,-3.156 3.809,-5.058 0,-2.54 -4.446,-10.79 -9.504,-19.02 -19.649,-32.328 -47.547,-55.789 -102.696,-55.789 -72.265,0 -118.535,46.277 -118.535,112.211 v 78.59 c 0,52.609 46.27,112.195 118.535,112.195 71.633,0 117.903,-59.586 117.903,-112.195 V 758.91 c 0,-4.43 -1.895,-6.332 -6.34,-6.332"
                    style="fill:#465a80;fill-opacity:1;fill-rule:nonzero;stroke:none" id="path34" class="cEntralemarseille"/>
            <path
                    d="m 1269.55,625.801 h -60.21 c -4.44,0 -6.34,1.91 -6.34,6.34 v 172.418 c 0,25.351 -19.66,45.011 -45.01,45.011 -25.35,0 -45.63,-19.66 -45.63,-45.011 V 632.141 c 0,-4.43 -1.91,-6.34 -6.34,-6.34 h -59.59 c -4.44,0 -6.34,1.91 -6.34,6.34 v 277.64 c 0,4.446 1.9,6.344 6.34,6.344 h 53.88 c 4.44,0 6.34,-1.266 6.34,-5.711 0,-4.437 1.9,-6.976 5.07,-6.976 1.91,0 2.54,0.636 4.43,1.269 13.32,6.981 29.16,11.418 41.84,11.418 71.63,0 117.91,-45.641 117.91,-111.566 V 632.141 c 0,-4.43 -1.9,-6.34 -6.35,-6.34"
                    style="fill:#465a80;fill-opacity:1;fill-rule:nonzero;stroke:none" id="path36" class="ceNtralemarseille"/>
            <path
                    d="m 1488.23,619.461 c -12.06,0 -34.88,3.809 -53.89,11.418 -43.74,17.742 -66.55,54.512 -66.55,100.793 v 111.547 c 0,4.441 -1.91,6.351 -6.35,6.351 h -32.95 c -4.44,0 -6.35,1.899 -6.35,5.7 0,3.808 0.64,17.113 1.27,34.226 l 72.89,77.336 c 1.91,1.898 4.44,3.805 7.61,3.805 h 29.79 c 4.44,0 6.34,-1.907 6.34,-6.344 v -41.836 c 0,-4.43 1.91,-6.332 6.35,-6.332 h 41.84 c 4.42,0 6.32,-1.898 6.32,-6.344 V 855.91 c 0,-4.441 -1.9,-6.34 -6.32,-6.34 h -41.84 c -4.44,0 -6.35,-1.91 -6.35,-6.351 V 731.672 c 0,-22.832 15.85,-42.481 48.82,-45.012 3.79,0 5.69,-2.539 5.69,-6.351 v -54.508 c 0,-4.442 -2.54,-6.34 -6.32,-6.34"
                    style="fill:#465a80;fill-opacity:1;fill-rule:nonzero;stroke:none" id="path38" class="cenTralemarseille"/>
            <path
                    d="m 1699.92,836.891 c -3.8,0 -9.5,5.699 -22.82,5.699 -25.98,0 -45.63,-19.02 -45.63,-44.379 v -166.07 c 0,-4.43 -1.91,-6.34 -6.34,-6.34 h -59.59 c -4.43,0 -6.34,1.91 -6.34,6.34 v 277.64 c 0,4.446 1.91,6.344 6.34,6.344 h 53.88 c 4.44,0 6.34,-0.637 6.34,-5.711 v -8.875 c 0,-3.793 2.53,-6.332 5.07,-6.332 2.54,0 3.17,0.633 4.44,1.902 6.33,6.965 27.89,19.016 48.17,19.016 6.35,0 12.68,-0.637 17.75,-1.898 3.17,-0.637 5.07,-3.176 5.07,-6.344 v -64.024 c 0,-4.437 -3.17,-6.968 -6.34,-6.968"
                    style="fill:#465a80;fill-opacity:1;fill-rule:nonzero;stroke:none" id="path40" class="centRalemarseille"/>
            <path
                    d="m 1901.48,737.988 h -67.2 c -9.5,0 -17.12,-8.226 -17.12,-17.738 v -9.512 c 0,-10.136 6.98,-18.379 17.12,-18.379 h 24.09 c 20.28,0 39.93,17.121 43.11,35.5 z m 65.92,-112.187 h -53.89 c -4.44,0 -6.33,1.269 -6.33,5.078 0,5.062 -1.27,8.23 -4.44,8.23 -1.9,0 -3.8,-0.629 -5.71,-1.898 -13.94,-7.602 -26.63,-11.41 -38.66,-11.41 h -24.09 c -50.07,0 -89.38,34.23 -89.38,84.937 v 3.184 c 0,51.969 39.31,84.93 89.38,84.93 h 60.85 c 4.44,0 6.35,2.527 6.35,6.339 v 7.61 c 0,24.73 -20.3,43.109 -46.28,43.109 -15.22,0 -31.06,-9.519 -46.28,-36.14 -1.27,-2.532 -3.16,-3.801 -5.06,-3.801 -2.54,0 -5.08,1.91 -7.62,3.16 l -48.17,25.359 c -2.54,1.274 -3.8,2.543 -3.8,4.442 0,3.172 6.96,15.847 13.31,25.359 20.28,30.418 48.81,48.168 97.62,48.168 72.26,0 118.53,-45.629 118.53,-111.559 V 632.141 c 0,-4.43 -1.9,-6.34 -6.33,-6.34"
                    style="fill:#465a80;fill-opacity:1;fill-rule:nonzero;stroke:none" id="path42" class="centrAlemarseille"/>
            <path
                    d="m 2106.19,625.801 h -59.58 c -4.44,0 -6.34,1.91 -6.34,6.34 v 386.669 c 0,4.43 1.9,6.34 6.34,6.34 h 59.58 c 4.45,0 6.35,-1.91 6.35,-6.34 V 632.141 c 0,-4.43 -1.9,-6.34 -6.35,-6.34"
                    style="fill:#465a80;fill-opacity:1;fill-rule:nonzero;stroke:none" id="path44" class="centraLemarseille"/>
            <path
                    d="m 2288.74,855.91 c -31.06,0 -45.01,-28.531 -45.01,-36.781 0,-3.16 2.54,-5.699 6.99,-5.699 h 75.43 c 4.43,0 6.97,2.539 6.97,5.699 0,7.609 -12.69,36.781 -44.38,36.781 z m 111.57,-103.332 h -150.86 c -4.45,0 -6.35,-1.898 -6.35,-6.34 v -14.566 c 0,-24.731 19.65,-45.652 45.64,-45.652 16.48,0 33.6,10.152 45.01,37.402 1.27,2.527 3.16,3.797 5.06,3.797 1.91,0 5.71,-1.899 10.78,-4.438 l 47.54,-23.453 c 2.54,-1.269 3.81,-3.156 3.81,-5.058 0,-2.54 -4.43,-10.79 -9.5,-19.02 -19.66,-32.328 -47.55,-55.789 -102.7,-55.789 -72.26,0 -118.53,46.277 -118.53,112.211 v 78.59 c 0,52.609 46.27,112.195 118.53,112.195 71.62,0 117.9,-59.586 117.9,-112.195 V 758.91 c 0,-4.43 -1.9,-6.332 -6.33,-6.332"
                    style="fill:#465a80;fill-opacity:1;fill-rule:nonzero;stroke:none" id="path46" class="centralEmarseille"/>
            <path
                    d="m 1152.4,1173.65 258.28,106.36 -1.62,2.93 c -155.78,-39.74 -360.52,19.39 -368.86,99.71 -1.29,68.17 24.07,136.76 76.09,188.78 40.7,40.7 91.53,65.07 144.39,73.14 l 0.94,3.01 h -209.87 c -8.11,0 -11.59,-3.5 -11.59,-11.61 h -0.02 v -202.85 l -169.687,-63.89 c -7.59,-2.85 -7.93,-5.99 -1.164,-10.43 l 74.621,-48.82 0.008,0.02 10.508,-6.88 0.09,0.14 26.464,-17.31 c 32.37,-21.16 91.74,-54.72 102.11,-60.32 l -0.67,-1.91 c -4.08,0.91 -25.87,8.73 -39.74,10.78 l -2.54,0.4 v -95.71 c 0,-8.11 3.5,-11.59 11.61,-11.59 v -0.02 h 209.87 l -0.94,3.01 c -38.18,5.83 -75.28,20.21 -108.28,43.06"
                    style="fill:#465a80;fill-opacity:1;fill-rule:nonzero;stroke:none" id="path48" class="gauche"/>
            <path
                    d="m 1740.2,1425.43 -169.29,91.84 -0.97,-2.16 c -6.19,-13.41 -11.87,-37.16 -13.41,-41.3 l -2.07,0.52 c 1.03,12.39 5.68,84.15 5.68,124.94 v 25 8.35 3.35 c 0,8.11 -3.51,11.58 -11.61,11.58 v 0.03 h -209.88 l 0.95,-3.01 c 52.85,-8.07 103.68,-32.44 144.39,-73.14 50.73,-50.73 76.11,-117.21 76.15,-183.7 v 0 c 0,0 -0.02,-32.52 -63.79,-69.24 l 1.61,-2.55 57.75,23.78 c -9.29,-49.82 -33.19,-97.45 -71.72,-135.99 -40.71,-40.7 -91.54,-65.07 -144.39,-73.14 l -0.95,-3.01 h 209.88 c 8.11,0 11.58,3.5 11.58,11.61 h 0.03 v 202.36 l 179.52,73.92 c 7.5,3.09 7.66,6.08 0.54,9.96"
                    style="fill:#465a80;fill-opacity:1;fill-rule:nonzero;stroke:none" id="path50" class="droite"/>
            <path
                    d="m 1409.06,1282.94 c -155.78,-39.74 -360.52,19.39 -368.86,99.71 -0.33,17.44 1.11,34.89 4.27,52.1 l -4.33,-1.63 -169.687,-63.89 c -7.59,-2.85 -7.93,-5.98 -1.164,-10.43 l 74.621,-48.82 0.008,0.02 10.508,-6.88 0.09,0.14 26.464,-17.31 c 32.37,-21.16 91.74,-54.72 102.11,-60.32 l -0.67,-1.91 59.52,-45.62 c 0,0 6.97,-6.2 10.46,-4.45 l 258.28,106.36 -1.62,2.93"
                    style="fill:#2a3d8d;fill-opacity:1;fill-rule:nonzero;stroke:none" id="path52" class="ailegauche"/>
            <path
                    d="m 1579.79,1349.64 3.48,1.43 v 0 l 156.39,64.41 c 7.5,3.08 7.66,6.07 0.53,9.95 l -169.28,91.84 -0.97,-2.16 c -6.19,-13.41 -11.87,-37.16 -13.41,-41.3 l -2.07,0.52 c 0,-21.38 5.68,-33.22 5.68,-86.6 h -0.01 c 0,-0.03 -0.04,-32.53 -63.78,-69.24 l 1.6,-2.55 27.68,11.4 v 0 l 11.67,4.8 18.41,7.58 v 0 l 4.43,1.83 v 0 l 19.65,8.09"
                    style="fill:#2a3d8d;fill-opacity:1;fill-rule:nonzero;stroke:none" id="path64" class="ailedroite"/>
        </g>
    </g>
</svg>
